<svg id="visual" viewBox="0 0 960 540" width="960" height="540" xmlns="http://www.w3.org/2000/svg" xmlns:xlink="http://www.w3.org/1999/xlink" version="1.1"><rect x="0" y="0" width="960" height="540" fill="#FFFFFF"></rect><defs><linearGradient id="grad1_0" x1="43.8%" y1="0%" x2="100%" y2="100%"><stop offset="14.444444444444446%" stop-color="#ffffff" stop-opacity="1"></stop><stop offset="85.55555555555554%" stop-color="#ffffff" stop-opacity="1"></stop></linearGradient></defs><defs><linearGradient id="grad2_0" x1="0%" y1="0%" x2="56.3%" y2="100%"><stop offset="14.444444444444446%" stop-color="#ffffff" stop-opacity="1"></stop><stop offset="85.55555555555554%" stop-color="#ffffff" stop-opacity="1"></stop></linearGradient></defs><g transform="translate(960, 0)"><path d="M0 432C-54.4 384.8 -108.8 337.5 -177.5 307.4C-246.2 277.3 -329.3 264.4 -374.1 216C-418.9 167.6 -425.5 83.8 -432 0L0 0Z" fill="#12B1D1"></path></g><g transform="translate(0, 540)"><path d="M0 -432C43.5 -365.8 86.9 -299.7 157 -271.9C227.1 -244.2 323.8 -254.9 374.1 -216C424.4 -177.1 428.2 -88.5 432 0L0 0Z" fill="#12B1D1"></path></g></svg>